<svg xmlns="http://www.w3.org/2000/svg" version="1.1" xmlns:xlink="http://www.w3.org/1999/xlink" xmlns:svgjs="http://svgjs.com/svgjs" width="1440" height="560" preserveAspectRatio="none" viewBox="0 0 1440 560"><g mask="url(&quot;#SvgjsMask1002&quot;)" fill="none"><rect width="1440" height="560" x="0" y="0" fill="url(#SvgjsLinearGradient1003)"></rect><path d="M1440 0L1065.34 0L1440 241.6z" fill="rgba(255, 255, 255, .1)"></path><path d="M1065.34 0L1440 241.6L1440 370.28L833.04 0z" fill="rgba(255, 255, 255, .075)"></path><path d="M833.04 0L1440 370.28L1440 394.54999999999995L829.86 0z" fill="rgba(255, 255, 255, .05)"></path><path d="M829.86 0L1440 394.54999999999995L1440 487.12999999999994L448.62 0z" fill="rgba(255, 255, 255, .025)"></path><path d="M0 560L415.63 560L0 476.15z" fill="rgba(0, 0, 0, .1)"></path><path d="M0 476.15L415.63 560L621.97 560L0 446.67999999999995z" fill="rgba(0, 0, 0, .075)"></path><path d="M0 446.68L621.97 560L1014.28 560L0 424.59000000000003z" fill="rgba(0, 0, 0, .05)"></path><path d="M0 424.59000000000003L1014.28 560L1290.15 560L0 245.28000000000003z" fill="rgba(0, 0, 0, .025)"></path></g><defs><mask id="SvgjsMask1002"><rect width="1440" height="560" fill="#ffffff"></rect></mask><linearGradient x1="15.28%" y1="-39.29%" x2="84.72%" y2="139.29%" gradientUnits="userSpaceOnUse" id="SvgjsLinearGradient1003"><stop stop-color="#0e2a47" offset="0"></stop><stop stop-color="#00459e" offset="1"></stop></linearGradient></defs></svg>